<?xml version="1.0" ?><svg width="2.5rem" height="2.5rem" viewBox="0 0 24 24" style="enable-background:new 0 0 24 24;" version="1.1" xml:space="preserve" xmlns="http://www.w3.org/2000/svg" xmlns:xlink="http://www.w3.org/1999/xlink"><style type="text/css">
	.st0{opacity:0.2;fill:none;stroke:#000000;stroke-width:5.000000e-02;stroke-miterlimit:10;}
</style><g id="Layer_Grid"/><g id="Layer_2"><path d="M19.8,5.4C19.6,5.2,19.3,5,19,5c0-1.7-1.3-3-3-3H8C6.3,2,5,3.3,5,5C4.7,5,4.4,5.2,4.2,5.4L2.9,7.3c-0.6,0.9-0.8,2-0.5,3   C2.7,11.3,3.2,12,4,12.4V17c0,2.2,1.8,4,4,4h2h4h2c2.2,0,4-1.8,4-4v-4.6c0.8-0.5,1.3-1.2,1.6-2.1c0.3-1,0.1-2.2-0.5-3L19.8,5.4z    M8,4h8c0.6,0,1,0.4,1,1h-2H9H7C7,4.4,7.4,4,8,4z M14,7v1.8V9c0,1.1-0.9,2-2,2s-2-0.9-2-2V8.8V7H14z M5.7,11   c-0.1,0-0.3-0.1-0.4-0.1c-0.1,0-0.2-0.1-0.2-0.1c-0.4-0.2-0.6-0.5-0.7-0.9c-0.1-0.5,0-1,0.2-1.4l1-1.4H6h2v1.8c0,0.9-0.6,1.8-1.4,2   c0,0-0.1,0-0.1,0c-0.1,0-0.1,0-0.2,0c-0.1,0-0.1,0-0.2,0c-0.1,0-0.2,0-0.3,0C5.8,11,5.8,11,5.7,11z M13,19h-2v-2c0-0.6,0.4-1,1-1   s1,0.4,1,1V19z M18,17c0,1.1-0.9,2-2,2h-1v-2c0-1.7-1.3-3-3-3s-3,1.3-3,3v2H8c-1.1,0-2-0.9-2-2v-4c0,0,0,0,0,0c0,0,0,0,0,0   c0.1,0,0.3,0,0.4,0c0.1,0,0.2,0,0.3-0.1c0.1,0,0.2,0,0.3-0.1c0.1,0,0.2-0.1,0.4-0.1c0.2-0.1,0.3-0.1,0.4-0.2c0,0,0,0,0,0   C8.3,12.3,8.7,12,9,11.6c0,0,0.1,0.1,0.1,0.1c0.1,0.1,0.2,0.2,0.3,0.3c0.1,0.1,0.2,0.1,0.3,0.2c0.1,0.1,0.3,0.2,0.4,0.3   c0.1,0.1,0.2,0.1,0.3,0.2c0.2,0.1,0.3,0.1,0.5,0.2c0.1,0,0.2,0.1,0.3,0.1C11.4,13,11.7,13,12,13s0.6,0,0.8-0.1   c0.1,0,0.2-0.1,0.3-0.1c0.2-0.1,0.4-0.1,0.5-0.2c0.1,0,0.2-0.1,0.3-0.2c0.1-0.1,0.3-0.2,0.4-0.3c0.1-0.1,0.2-0.1,0.3-0.2   c0.1-0.1,0.2-0.2,0.3-0.3c0,0,0.1,0,0.1-0.1c0.3,0.4,0.7,0.7,1.1,0.9c0,0,0,0,0,0c0.1,0.1,0.3,0.1,0.4,0.2c0.1,0,0.2,0.1,0.4,0.1   c0.1,0,0.2,0,0.3,0.1c0.1,0,0.2,0,0.3,0.1c0.1,0,0.3,0,0.4,0c0,0,0,0,0,0V17z M19.6,9.8c-0.1,0.4-0.4,0.8-0.7,0.9   c-0.1,0-0.2,0.1-0.3,0.1c-0.1,0-0.2,0.1-0.4,0.1c0,0-0.1,0-0.1,0c-0.1,0-0.2,0-0.3,0c-0.1,0-0.1,0-0.2,0c-0.1,0-0.1,0-0.2,0   c0,0-0.1,0-0.1,0c-0.8-0.3-1.4-1.1-1.4-2V7h2h0.5l1,1.4C19.7,8.8,19.8,9.4,19.6,9.8z" fill='white'/></g></svg>