<?xml version="1.0" ?><svg width="2.5rem" height="2.5rem" viewBox="0 0 32 32" enable-background="new 0 0 32 32" id="Layer_3" version="1.1" xml:space="preserve" xmlns="http://www.w3.org/2000/svg" xmlns:xlink="http://www.w3.org/1999/xlink"><g><path d="M10,17.741V21c0,0.552,0.448,1,1,1h1.295l0.709,7.1C13.056,29.611,13.486,30,14,30h4c0.514,0,0.944-0.389,0.995-0.9   l0.709-7.1H21c0.552,0,1-0.448,1-1v-3.259C22,15.678,20.322,14,18.259,14H16h-2.259C11.678,14,10,15.678,10,17.741z M18.259,16   C19.219,16,20,16.781,20,17.741V20h-1.2c-0.514,0-0.944,0.389-0.995,0.9L17.095,28h-2.19l-0.709-7.1   C14.144,20.389,13.714,20,13.2,20H12v-2.259C12,16.781,12.781,16,13.741,16H18.259z" fill='#101221'/><path d="M12,10c0,2.206,1.794,4,4,4s4-1.794,4-4V8.933C20,7.316,18.684,6,17.067,6h-2.134C13.316,6,12,7.316,12,8.933V10z    M14,8.933C14,8.418,14.418,8,14.933,8h2.134C17.582,8,18,8.418,18,8.933V10c0,1.103-0.897,2-2,2s-2-0.897-2-2V8.933z" fill='#101221'/><path d="M26.259,10H24h-2.259c-0.552,0-1,0.448-1,1s0.448,1,1,1h4.518C27.219,12,28,12.781,28,13.741V16h-1.2   c-0.514,0-0.944,0.389-0.995,0.9L25.095,24H22c-0.552,0-1,0.448-1,1s0.448,1,1,1h4c0.514,0,0.944-0.389,0.995-0.9l0.709-7.1H29   c0.552,0,1-0.448,1-1v-3.259C30,11.678,28.322,10,26.259,10z" fill='#101221'/><path d="M3,18h1.295l0.709,7.1C5.056,25.611,5.486,26,6,26h4c0.552,0,1-0.448,1-1s-0.448-1-1-1H6.905l-0.709-7.1   C6.144,16.389,5.714,16,5.2,16H4v-2.259C4,12.781,4.781,12,5.741,12h4.518c0.552,0,1-0.448,1-1s-0.448-1-1-1H8H5.741   C3.678,10,2,11.678,2,13.741V17C2,17.552,2.448,18,3,18z" fill='#101221'/><path d="M28,6V4.933C28,3.316,26.684,2,25.067,2h-2.134C21.316,2,20,3.316,20,4.933V6c0,2.206,1.794,4,4,4S28,8.206,28,6z M26,6   c0,1.103-0.897,2-2,2s-2-0.897-2-2V4.933C22,4.418,22.418,4,22.933,4h2.134C25.582,4,26,4.418,26,4.933V6z" fill='#101221'/><path d="M12,6V4.933C12,3.316,10.684,2,9.067,2H6.933C5.316,2,4,3.316,4,4.933V6c0,2.206,1.794,4,4,4S12,8.206,12,6z M10,6   c0,1.103-0.897,2-2,2S6,7.103,6,6V4.933C6,4.418,6.418,4,6.933,4h2.134C9.582,4,10,4.418,10,4.933V6z" fill='#101221'/></g></svg>